<mxfile host="app.diagrams.net" agent="Mozilla/5.0 (Windows NT 10.0; Win64; x64) AppleWebKit/537.36 (KHTML, like Gecko) Chrome/127.0.0.0 Safari/537.36" version="24.7.6">
  <diagram name="‫עמוד-1‬" id="ChmWJI8ft5dyFpxBmU6k">
    <mxGraphModel dx="1434" dy="746" grid="1" gridSize="10" guides="1" tooltips="1" connect="1" arrows="1" fold="1" page="1" pageScale="1" pageWidth="827" pageHeight="1169" math="0" shadow="0">
      <root>
        <mxCell id="0" />
        <mxCell id="1" parent="0" />
        <mxCell id="9Y4K2Z1cJyQ4xQ6lxvM8-6" style="edgeStyle=orthogonalEdgeStyle;rounded=0;orthogonalLoop=1;jettySize=auto;html=1;exitX=1;exitY=0.25;exitDx=0;exitDy=0;" parent="1" source="9Y4K2Z1cJyQ4xQ6lxvM8-8" target="9Y4K2Z1cJyQ4xQ6lxvM8-3" edge="1">
          <mxGeometry relative="1" as="geometry">
            <Array as="points">
              <mxPoint x="260" y="205" />
              <mxPoint x="300" y="205" />
            </Array>
          </mxGeometry>
        </mxCell>
        <mxCell id="9Y4K2Z1cJyQ4xQ6lxvM8-1" value="app" style="rounded=1;whiteSpace=wrap;html=1;fillColor=#dae8fc;strokeColor=#6c8ebf;" parent="1" vertex="1">
          <mxGeometry x="120" y="135" width="120" height="60" as="geometry" />
        </mxCell>
        <mxCell id="9Y4K2Z1cJyQ4xQ6lxvM8-2" value="info" style="rounded=1;whiteSpace=wrap;html=1;fillColor=#f8cecc;strokeColor=#b85450;" parent="1" vertex="1">
          <mxGeometry x="240" y="480" width="120" height="60" as="geometry" />
        </mxCell>
        <mxCell id="9Y4K2Z1cJyQ4xQ6lxvM8-7" style="edgeStyle=orthogonalEdgeStyle;rounded=0;orthogonalLoop=1;jettySize=auto;html=1;entryX=0.5;entryY=0;entryDx=0;entryDy=0;" parent="1" source="9Y4K2Z1cJyQ4xQ6lxvM8-3" target="9Y4K2Z1cJyQ4xQ6lxvM8-4" edge="1">
          <mxGeometry relative="1" as="geometry" />
        </mxCell>
        <mxCell id="9Y4K2Z1cJyQ4xQ6lxvM8-3" value="transactions" style="rounded=1;whiteSpace=wrap;html=1;fillColor=#fff2cc;strokeColor=#d6b656;" parent="1" vertex="1">
          <mxGeometry x="240" y="265" width="120" height="60" as="geometry" />
        </mxCell>
        <mxCell id="9Y4K2Z1cJyQ4xQ6lxvM8-22" value="" style="edgeStyle=orthogonalEdgeStyle;rounded=0;orthogonalLoop=1;jettySize=auto;html=1;" parent="1" source="9Y4K2Z1cJyQ4xQ6lxvM8-4" target="9Y4K2Z1cJyQ4xQ6lxvM8-2" edge="1">
          <mxGeometry relative="1" as="geometry" />
        </mxCell>
        <mxCell id="9Y4K2Z1cJyQ4xQ6lxvM8-4" value="getAccount" style="rounded=1;whiteSpace=wrap;html=1;fillColor=#fff2cc;strokeColor=#d6b656;" parent="1" vertex="1">
          <mxGeometry x="240" y="365" width="120" height="60" as="geometry" />
        </mxCell>
        <mxCell id="9Y4K2Z1cJyQ4xQ6lxvM8-8" value="middleware" style="rounded=1;whiteSpace=wrap;html=1;fillColor=#d5e8d4;strokeColor=#82b366;" parent="1" vertex="1">
          <mxGeometry x="100" y="195" width="160" height="20" as="geometry" />
        </mxCell>
        <mxCell id="9Y4K2Z1cJyQ4xQ6lxvM8-9" style="edgeStyle=orthogonalEdgeStyle;rounded=0;orthogonalLoop=1;jettySize=auto;html=1;entryX=0.5;entryY=0;entryDx=0;entryDy=0;exitX=0;exitY=0.25;exitDx=0;exitDy=0;" parent="1" source="9Y4K2Z1cJyQ4xQ6lxvM8-16" target="9Y4K2Z1cJyQ4xQ6lxvM8-12" edge="1">
          <mxGeometry relative="1" as="geometry" />
        </mxCell>
        <mxCell id="9Y4K2Z1cJyQ4xQ6lxvM8-10" style="edgeStyle=orthogonalEdgeStyle;rounded=0;orthogonalLoop=1;jettySize=auto;html=1;exitX=1;exitY=0.25;exitDx=0;exitDy=0;" parent="1" source="9Y4K2Z1cJyQ4xQ6lxvM8-16" target="9Y4K2Z1cJyQ4xQ6lxvM8-14" edge="1">
          <mxGeometry relative="1" as="geometry">
            <Array as="points">
              <mxPoint x="950" y="190" />
              <mxPoint x="990" y="190" />
            </Array>
          </mxGeometry>
        </mxCell>
        <mxCell id="9Y4K2Z1cJyQ4xQ6lxvM8-11" value="app" style="rounded=1;whiteSpace=wrap;html=1;fillColor=#dae8fc;strokeColor=#6c8ebf;" parent="1" vertex="1">
          <mxGeometry x="810" y="120" width="120" height="60" as="geometry" />
        </mxCell>
        <mxCell id="9Y4K2Z1cJyQ4xQ6lxvM8-19" value="" style="edgeStyle=orthogonalEdgeStyle;rounded=0;orthogonalLoop=1;jettySize=auto;html=1;" parent="1" source="9Y4K2Z1cJyQ4xQ6lxvM8-12" target="9Y4K2Z1cJyQ4xQ6lxvM8-18" edge="1">
          <mxGeometry relative="1" as="geometry" />
        </mxCell>
        <mxCell id="9Y4K2Z1cJyQ4xQ6lxvM8-12" value="routerInto" style="rounded=1;whiteSpace=wrap;html=1;fillColor=#e1d5e7;strokeColor=#9673a6;" parent="1" vertex="1">
          <mxGeometry x="630" y="250" width="120" height="60" as="geometry" />
        </mxCell>
        <mxCell id="9Y4K2Z1cJyQ4xQ6lxvM8-13" style="edgeStyle=orthogonalEdgeStyle;rounded=0;orthogonalLoop=1;jettySize=auto;html=1;entryX=0.5;entryY=0;entryDx=0;entryDy=0;" parent="1" source="9Y4K2Z1cJyQ4xQ6lxvM8-14" target="9Y4K2Z1cJyQ4xQ6lxvM8-15" edge="1">
          <mxGeometry relative="1" as="geometry" />
        </mxCell>
        <mxCell id="9Y4K2Z1cJyQ4xQ6lxvM8-14" value="routerAccount" style="rounded=1;whiteSpace=wrap;html=1;fillColor=#e1d5e7;strokeColor=#9673a6;" parent="1" vertex="1">
          <mxGeometry x="930" y="250" width="120" height="60" as="geometry" />
        </mxCell>
        <mxCell id="9Y4K2Z1cJyQ4xQ6lxvM8-15" value="getAccount" style="rounded=1;whiteSpace=wrap;html=1;fillColor=#fff2cc;strokeColor=#d6b656;" parent="1" vertex="1">
          <mxGeometry x="930" y="465" width="120" height="60" as="geometry" />
        </mxCell>
        <mxCell id="9Y4K2Z1cJyQ4xQ6lxvM8-16" value="middleware" style="rounded=1;whiteSpace=wrap;html=1;fillColor=#d5e8d4;strokeColor=#82b366;" parent="1" vertex="1">
          <mxGeometry x="790" y="180" width="160" height="20" as="geometry" />
        </mxCell>
        <mxCell id="9Y4K2Z1cJyQ4xQ6lxvM8-17" value="transactions" style="rounded=1;whiteSpace=wrap;html=1;fillColor=#fff2cc;strokeColor=#d6b656;" parent="1" vertex="1">
          <mxGeometry x="930" y="355" width="120" height="60" as="geometry" />
        </mxCell>
        <mxCell id="9Y4K2Z1cJyQ4xQ6lxvM8-18" value="info" style="rounded=1;whiteSpace=wrap;html=1;fillColor=#f8cecc;strokeColor=#b85450;" parent="1" vertex="1">
          <mxGeometry x="630" y="365" width="120" height="60" as="geometry" />
        </mxCell>
        <mxCell id="m9MYiIf29GjvSXXJVPXn-3" style="edgeStyle=orthogonalEdgeStyle;rounded=0;orthogonalLoop=1;jettySize=auto;html=1;" edge="1" parent="1" source="m9MYiIf29GjvSXXJVPXn-1" target="m9MYiIf29GjvSXXJVPXn-2">
          <mxGeometry relative="1" as="geometry" />
        </mxCell>
        <mxCell id="m9MYiIf29GjvSXXJVPXn-4" value="HTTP" style="edgeLabel;html=1;align=center;verticalAlign=middle;resizable=0;points=[];" vertex="1" connectable="0" parent="m9MYiIf29GjvSXXJVPXn-3">
          <mxGeometry x="-0.0828" y="4" relative="1" as="geometry">
            <mxPoint as="offset" />
          </mxGeometry>
        </mxCell>
        <mxCell id="m9MYiIf29GjvSXXJVPXn-1" value="Client - React" style="ellipse;whiteSpace=wrap;html=1;" vertex="1" parent="1">
          <mxGeometry x="290" y="770" width="260" height="140" as="geometry" />
        </mxCell>
        <mxCell id="m9MYiIf29GjvSXXJVPXn-13" style="edgeStyle=orthogonalEdgeStyle;rounded=0;orthogonalLoop=1;jettySize=auto;html=1;" edge="1" parent="1" source="m9MYiIf29GjvSXXJVPXn-2" target="m9MYiIf29GjvSXXJVPXn-12">
          <mxGeometry relative="1" as="geometry">
            <Array as="points">
              <mxPoint x="1240" y="840" />
            </Array>
          </mxGeometry>
        </mxCell>
        <mxCell id="m9MYiIf29GjvSXXJVPXn-17" style="edgeStyle=orthogonalEdgeStyle;rounded=0;orthogonalLoop=1;jettySize=auto;html=1;entryX=0;entryY=0.5;entryDx=0;entryDy=0;" edge="1" parent="1" source="m9MYiIf29GjvSXXJVPXn-2" target="m9MYiIf29GjvSXXJVPXn-16">
          <mxGeometry relative="1" as="geometry">
            <Array as="points">
              <mxPoint x="990" y="1045" />
            </Array>
          </mxGeometry>
        </mxCell>
        <mxCell id="m9MYiIf29GjvSXXJVPXn-2" value="Server - API (node )" style="ellipse;whiteSpace=wrap;html=1;" vertex="1" parent="1">
          <mxGeometry x="840" y="770" width="260" height="140" as="geometry" />
        </mxCell>
        <mxCell id="m9MYiIf29GjvSXXJVPXn-5" value="Client - (node)" style="ellipse;whiteSpace=wrap;html=1;" vertex="1" parent="1">
          <mxGeometry x="370" y="950" width="260" height="140" as="geometry" />
        </mxCell>
        <mxCell id="m9MYiIf29GjvSXXJVPXn-6" style="edgeStyle=orthogonalEdgeStyle;rounded=0;orthogonalLoop=1;jettySize=auto;html=1;entryX=0.254;entryY=0.914;entryDx=0;entryDy=0;entryPerimeter=0;" edge="1" parent="1" source="m9MYiIf29GjvSXXJVPXn-5" target="m9MYiIf29GjvSXXJVPXn-2">
          <mxGeometry relative="1" as="geometry" />
        </mxCell>
        <mxCell id="m9MYiIf29GjvSXXJVPXn-7" value="HTTP" style="edgeLabel;html=1;align=center;verticalAlign=middle;resizable=0;points=[];" vertex="1" connectable="0" parent="m9MYiIf29GjvSXXJVPXn-6">
          <mxGeometry x="-0.2765" y="-8" relative="1" as="geometry">
            <mxPoint as="offset" />
          </mxGeometry>
        </mxCell>
        <mxCell id="m9MYiIf29GjvSXXJVPXn-9" value="" style="dashed=0;outlineConnect=0;html=1;align=center;labelPosition=center;verticalLabelPosition=bottom;verticalAlign=top;shape=mxgraph.weblogos.chrome" vertex="1" parent="1">
          <mxGeometry x="262.6" y="802.3000000000001" width="74.8" height="75.4" as="geometry" />
        </mxCell>
        <mxCell id="m9MYiIf29GjvSXXJVPXn-10" value="" style="shape=image;verticalLabelPosition=bottom;labelBackgroundColor=default;verticalAlign=top;aspect=fixed;imageAspect=0;image=https://images.g2crowd.com/uploads/product/image/large_detail/large_detail_f0b606abb6d19089febc9faeeba5bc05/nodejs-development-services.png;" vertex="1" parent="1">
          <mxGeometry x="300" y="950" width="140" height="140" as="geometry" />
        </mxCell>
        <mxCell id="m9MYiIf29GjvSXXJVPXn-11" value="" style="shape=image;verticalLabelPosition=bottom;labelBackgroundColor=default;verticalAlign=top;aspect=fixed;imageAspect=0;image=https://images.g2crowd.com/uploads/product/image/large_detail/large_detail_f0b606abb6d19089febc9faeeba5bc05/nodejs-development-services.png;" vertex="1" parent="1">
          <mxGeometry x="760" y="770" width="140" height="140" as="geometry" />
        </mxCell>
        <mxCell id="m9MYiIf29GjvSXXJVPXn-12" value="" style="sketch=0;outlineConnect=0;fontColor=#232F3E;gradientColor=none;fillColor=#7AA116;strokeColor=none;dashed=0;verticalLabelPosition=bottom;verticalAlign=top;align=center;html=1;fontSize=12;fontStyle=0;aspect=fixed;pointerEvents=1;shape=mxgraph.aws4.file_system;" vertex="1" parent="1">
          <mxGeometry x="1160" y="640" width="160.27" height="150" as="geometry" />
        </mxCell>
        <mxCell id="m9MYiIf29GjvSXXJVPXn-14" value="" style="sketch=0;outlineConnect=0;fontColor=#232F3E;gradientColor=none;fillColor=#232F3D;strokeColor=none;dashed=0;verticalLabelPosition=bottom;verticalAlign=top;align=center;html=1;fontSize=12;fontStyle=0;aspect=fixed;pointerEvents=1;shape=mxgraph.aws4.json_script;" vertex="1" parent="1">
          <mxGeometry x="1200" y="660" width="80.38" height="110" as="geometry" />
        </mxCell>
        <mxCell id="m9MYiIf29GjvSXXJVPXn-15" value="array" style="shape=process;whiteSpace=wrap;html=1;backgroundOutline=1;" vertex="1" parent="1">
          <mxGeometry x="920" y="750" width="120" height="60" as="geometry" />
        </mxCell>
        <mxCell id="m9MYiIf29GjvSXXJVPXn-16" value="DB" style="shape=datastore;whiteSpace=wrap;html=1;" vertex="1" parent="1">
          <mxGeometry x="1130" y="960" width="160" height="170" as="geometry" />
        </mxCell>
        <mxCell id="m9MYiIf29GjvSXXJVPXn-18" value="authenticate" style="rounded=1;whiteSpace=wrap;html=1;fillColor=#d5e8d4;strokeColor=#82b366;" vertex="1" parent="1">
          <mxGeometry x="610" y="215" width="160" height="20" as="geometry" />
        </mxCell>
      </root>
    </mxGraphModel>
  </diagram>
</mxfile>
